# xmcd CD database file
#
# Track frame offsets:
#	150
#	27216
#	51587
#	73584
#	104030
#	125327
#	146299
#	177207
#
# Disc length: 2775 seconds
#
# Revision: 0
# Processed by: cddbd v1.5.2PL0 Copyright (c) Steve Scherf et al.
# Submitted via: CDex 1.70beta2
#
DISCID=720ad508
DTITLE=New Orleans Feet Warmers - Live 1996
DYEAR=1996
DGENRE=Jazz
TTITLE0=Darktown Strutter's Ball
TTITLE1=Laughing Samba
TTITLE2=Joe Avery's Piece - Shake That Thing - Lily May - Shake, Rattle 'n' Roll - Last Chance To Dance
TTITLE3=Buddy Bolden's Blues
TTITLE4=Eh La Bas
TTITLE5=Lord, Lord, Lord
TTITLE6=Dinah
TTITLE7=Sheik Of Araby
EXTD=YEAR: 1996
EXTT0=
EXTT1=
EXTT2=
EXTT3=
EXTT4=
EXTT5=
EXTT6=
EXTT7=
PLAYORDER=
